<?xml version="1.0" standalone="no"?>
<!DOCTYPE svg PUBLIC "-//W3C//DTD SVG 20010904//EN"
 "http://www.w3.org/TR/2001/REC-SVG-20010904/DTD/svg10.dtd">
<svg version="1.0" xmlns="http://www.w3.org/2000/svg"
 width="128.000000pt" height="128.000000pt" viewBox="0 0 128.000000 128.000000"
 preserveAspectRatio="xMidYMid meet">
<metadata>
Created by potrace 1.14, written by Peter Selinger 2001-2017
</metadata>
<g transform="translate(0.000000,128.000000) scale(0.100000,-0.100000)"
fill="#000000" stroke="none">
<path d="M482 1260 c-226 -59 -404 -239 -462 -466 -87 -338 124 -687 466 -774
338 -87 687 124 774 466 56 217 -8 442 -170 604 -162 162 -392 226 -608 170z
m300 -179 c107 -41 196 -130 239 -239 32 -81 32 -214 0 -295 -27 -68 -96 -147
-130 -147 -53 0 -77 26 -117 124 -21 52 -41 93 -45 91 -3 -2 -21 -42 -39 -89
-18 -47 -41 -93 -52 -103 -27 -24 -92 -23 -117 2 -15 15 -161 344 -161 362 0
2 30 3 67 1 l67 -3 40 -97 c22 -54 42 -98 45 -98 3 0 21 39 40 86 39 100 61
124 112 124 52 0 72 -22 114 -125 20 -49 40 -94 45 -98 13 -14 33 63 33 125
-2 177 -168 310 -346 277 -272 -49 -382 -370 -197 -572 69 -75 149 -111 250
-110 41 0 82 2 90 4 12 3 16 -8 18 -50 2 -30 -1 -58 -6 -63 -16 -16 -124 -21
-185 -8 -90 18 -186 72 -251 139 -248 261 -127 677 227 776 69 20 186 13 259
-14z"/>
</g>
</svg>
